<svg width="108" height="94" viewBox="0 0 108 94" fill="none" xmlns="http://www.w3.org/2000/svg">
<path d="M56.9232 0L8.8326 13.3245C8.8326 13.3245 0 13.075 0 22.4967C0 26.3851 1.7172 29.2828 1.7172 29.2828L38.3544 90.8202C41.8572 96.424 49.2966 92.9153 49.2966 92.9153L105.476 65.4294L103.374 63.2873C102.879 60.7149 102.591 55.9517 106.069 52.405C106.146 52.3254 106.16 52.217 106.202 52.1175L108 51.3927L56.9232 0ZM31.545 35.9839L22.8762 22.2888L58.4154 11.7355L68.2488 22.4859L31.545 35.9839M101.542 58.101C101.425 58.9325 101.365 59.7424 101.378 60.5016L64.4976 78.0814L101.509 62.3075C101.545 62.5949 101.578 62.8841 101.623 63.1445L54.3456 86.0768L101.995 64.8545L102.024 64.9666L49.2966 90.2978C49.2714 90.314 46.8648 91.5993 44.4528 91.5993C42.0696 91.5993 40.5846 90.3701 39.9078 87.8429C38.1672 81.3497 48.0564 77.6693 48.2058 77.615L102.895 53.8529C102.503 54.576 102.231 55.3117 102.004 56.0457L67.2876 72.4577L101.542 58.101" fill="black"/>
</svg>
