<svg width="19" height="19" viewBox="0 0 19 19" fill="none" xmlns="http://www.w3.org/2000/svg">
<path d="M17.2188 8.23828H15.2148V6.13047C15.2148 5.80205 14.9495 5.53672 14.6211 5.53672H8.77637L6.5999 3.45488C6.57221 3.42896 6.53578 3.41439 6.49785 3.41406H1.78125C1.45283 3.41406 1.1875 3.67939 1.1875 4.00781V14.9922C1.1875 15.3206 1.45283 15.5859 1.78125 15.5859H14.7324C14.9736 15.5859 15.1926 15.4394 15.2835 15.2148L17.7698 9.05469C17.7977 8.98418 17.8125 8.90811 17.8125 8.83203C17.8125 8.50361 17.5472 8.23828 17.2188 8.23828ZM2.52344 4.75H6.021L8.24014 6.87266H13.8789V8.23828H4.41602C4.1748 8.23828 3.95586 8.38486 3.86494 8.60938L2.52344 11.9344V4.75ZM14.3112 14.25H2.9502L4.86689 9.5H16.2298L14.3112 14.25Z" fill="#CDCDCD"/>
</svg>
