<svg width="19" height="19" viewBox="0 0 19 19" fill="none" xmlns="http://www.w3.org/2000/svg">
<path d="M3.34244 15.6576C3.70967 16.0253 4.14595 16.3169 4.62622 16.5155C5.10648 16.7142 5.62126 16.8159 6.14098 16.815C6.66081 16.8159 7.1757 16.7141 7.65609 16.5155C8.13648 16.3169 8.57291 16.0253 8.94031 15.6576L11.1791 13.4179L10.0597 12.2985L7.8209 14.5382C7.37477 14.9823 6.77089 15.2316 6.14137 15.2316C5.51186 15.2316 4.90798 14.9823 4.46185 14.5382C4.01734 14.0922 3.76773 13.4883 3.76773 12.8586C3.76773 12.229 4.01734 11.625 4.46185 11.1791L6.70148 8.94028L5.58206 7.82086L3.34244 10.0597C2.60128 10.8026 2.18506 11.8092 2.18506 12.8586C2.18506 13.9081 2.60128 14.9146 3.34244 15.6576V15.6576ZM15.6576 8.94028C16.3984 8.19713 16.8143 7.19063 16.8143 6.14134C16.8143 5.09206 16.3984 4.08556 15.6576 3.34241C14.9147 2.60125 13.9081 2.18503 12.8587 2.18503C11.8092 2.18503 10.8027 2.60125 10.0597 3.34241L7.8209 5.58203L8.94031 6.70145L11.1791 4.46182C11.6253 4.01769 12.2292 3.76835 12.8587 3.76835C13.4882 3.76835 14.0921 4.01769 14.5382 4.46182C14.9827 4.90775 15.2323 5.51171 15.2323 6.14134C15.2323 6.77098 14.9827 7.37494 14.5382 7.82086L12.2986 10.0597L13.418 11.1791L15.6576 8.94028Z" fill="#BCBABD"/>
<path d="M6.70065 13.4187L5.58044 12.2993L12.2993 5.58124L13.4187 6.70145L6.70065 13.4187Z" fill="#BCBABD"/>
</svg>
