<svg width="24" height="24" viewBox="0 0 24 24" fill="none" xmlns="http://www.w3.org/2000/svg">
<path fill-rule="evenodd" clip-rule="evenodd" d="M12 24C18.6274 24 24 18.6274 24 12C24 5.37258 18.6274 0 12 0C5.37258 0 0 5.37258 0 12C0 18.6274 5.37258 24 12 24ZM12.5 7.5H18.5C19.3325 7.5 20 8.1675 20 9V16.5C20 17.3325 19.3325 18 18.5 18H6.5C5.6675 18 5 17.3325 5 16.5L5.0075 7.5C5.0075 6.6675 5.6675 6 6.5 6H11L12.5 7.5ZM15.5 13.5H17.75V12H15.5V9.75H14V12H11.75V13.5H14V15.75H15.5V13.5Z" fill="white"/>
</svg>
