<svg width="24" height="24" viewBox="0 0 24 24" fill="none" xmlns="http://www.w3.org/2000/svg">
<path d="M11.7732 0C5.28152 0 0 5.28152 0 11.7732C0 18.2649 5.28152 23.5464 11.7732 23.5464C18.2649 23.5464 23.5464 18.2649 23.5464 11.7732C23.5464 5.28152 18.2649 0 11.7732 0ZM18.5654 10.7979H13.5279L15.6153 8.71046L15.2984 8.34199C14.7314 7.75339 14.0274 7.31446 13.2493 7.06445C12.4713 6.81443 11.6434 6.76111 10.8397 6.90927C10.0359 7.05742 9.28148 7.40243 8.6437 7.91345C8.00592 8.42446 7.5047 9.08555 7.18487 9.83762C6.86504 10.5897 6.73656 11.4093 6.81091 12.2232C6.88526 13.037 7.16013 13.8198 7.61094 14.5014C8.06175 15.1831 8.67445 15.7424 9.39427 16.1294C10.1141 16.5164 10.9186 16.719 11.7358 16.7191C12.7586 16.7181 13.7561 16.4007 14.5913 15.8104C15.4265 15.2201 16.0587 14.3858 16.401 13.422L16.7049 12.5656L18.4126 13.1696L18.1126 14.0259C17.6998 15.1941 16.9739 16.2263 16.0141 17.0098C15.0543 17.7933 13.8976 18.2978 12.6704 18.4683C11.4432 18.6388 10.1928 18.4686 9.0558 17.9765C7.91879 17.4843 6.93895 16.6891 6.22337 15.6777C5.5078 14.6662 5.08402 13.4776 4.99836 12.2416C4.9127 11.0056 5.16845 9.76984 5.73766 8.66938C6.30688 7.56892 7.16765 6.6461 8.22589 6.0018C9.28414 5.35749 10.4991 5.01649 11.7381 5.01606C12.6525 5.01257 13.5579 5.19632 14.3986 5.55601C15.2392 5.9157 15.9974 6.44371 16.6262 7.1075L16.6579 7.14259L16.9019 7.4256L18.5654 5.76264V10.7979Z" fill="white"/>
</svg>
