<svg width="13" height="13" viewBox="0 0 13 13" fill="none" xmlns="http://www.w3.org/2000/svg">
<path d="M12.5863 12.0925L8.53528 8.04154C9.16391 7.22885 9.50396 6.23522 9.50396 5.1901C9.50396 3.93909 9.01572 2.76607 8.13283 1.88162C7.24995 0.997177 6.07381 0.510498 4.82435 0.510498C3.5749 0.510498 2.39876 0.998737 1.51587 1.88162C0.631424 2.76451 0.144745 3.93909 0.144745 5.1901C0.144745 6.43956 0.632984 7.6157 1.51587 8.49859C2.39876 9.38303 3.57334 9.86971 4.82435 9.86971C5.86946 9.86971 6.86154 9.52966 7.67423 8.90259L11.7252 12.952C11.7371 12.9639 11.7512 12.9733 11.7667 12.9798C11.7822 12.9862 11.7989 12.9895 11.8157 12.9895C11.8325 12.9895 11.8491 12.9862 11.8646 12.9798C11.8802 12.9733 11.8943 12.9639 11.9062 12.952L12.5863 12.2735C12.5981 12.2616 12.6076 12.2475 12.614 12.232C12.6204 12.2164 12.6237 12.1998 12.6237 12.183C12.6237 12.1662 12.6204 12.1496 12.614 12.134C12.6076 12.1185 12.5981 12.1044 12.5863 12.0925V12.0925ZM7.29518 7.66094C6.6338 8.32076 5.75715 8.68421 4.82435 8.68421C3.89155 8.68421 3.0149 8.32076 2.35352 7.66094C1.69369 6.99955 1.33025 6.12291 1.33025 5.1901C1.33025 4.2573 1.69369 3.3791 2.35352 2.71927C3.0149 2.05945 3.89155 1.696 4.82435 1.696C5.75715 1.696 6.63536 2.05789 7.29518 2.71927C7.95501 3.38066 8.31846 4.2573 8.31846 5.1901C8.31846 6.12291 7.95501 7.00111 7.29518 7.66094Z" fill="black"/>
</svg>
