<svg width="24" height="24" viewBox="0 0 24 24" fill="none" xmlns="http://www.w3.org/2000/svg">
<path fill-rule="evenodd" clip-rule="evenodd" d="M12 24C18.6274 24 24 18.6274 24 12C24 5.37258 18.6274 0 12 0C5.37258 0 0 5.37258 0 12C0 18.6274 5.37258 24 12 24ZM18.0137 10.2507L19.8021 10.784C19.8632 10.8101 19.9149 10.8542 19.9502 10.9105C19.9855 10.9667 20.0028 11.0324 19.9996 11.0987V12.9174C19.9993 12.9866 19.9769 13.054 19.9356 13.1096C19.8943 13.1652 19.8363 13.2063 19.7701 13.2267L17.971 13.76C17.846 14.184 17.676 14.5935 17.4638 14.9814L18.35 16.6347C18.3829 16.6965 18.3949 16.7672 18.3843 16.8364C18.3737 16.9056 18.3411 16.9695 18.2913 17.0187L17.0154 18.2933C16.9662 18.3431 16.9022 18.3757 16.8329 18.3863C16.7637 18.3968 16.6929 18.3848 16.631 18.352L14.9707 17.4667C14.5839 17.6764 14.1759 17.8445 13.7535 17.968L13.2197 19.7707C13.1992 19.8368 13.1582 19.8948 13.1025 19.936C13.0468 19.9773 12.9794 19.9997 12.91 20H11.1056C11.0363 19.9997 10.9689 19.9773 10.9132 19.936C10.8575 19.8948 10.8164 19.8368 10.796 19.7707L10.2621 17.9733C9.83611 17.8504 9.42448 17.6824 9.03425 17.472L7.38464 18.352C7.32278 18.3848 7.25197 18.3968 7.18273 18.3863C7.11348 18.3757 7.0495 18.3431 7.00027 18.2933L5.72435 17.0187C5.67453 16.9695 5.6419 16.9056 5.63132 16.8364C5.62075 16.7672 5.63278 16.6965 5.66563 16.6347L6.54115 14.96C6.31836 14.5665 6.13934 14.1498 6.00729 13.7174L4.22956 13.184C4.16332 13.1636 4.10534 13.1226 4.06405 13.0669C4.02276 13.0113 4.00032 12.944 4 12.8747V11.072C4.00032 11.0028 4.02276 10.9354 4.06405 10.8798C4.10534 10.8242 4.16332 10.7831 4.22956 10.7627L5.99662 10.2294C6.12724 9.78963 6.30628 9.3657 6.53047 8.96539L5.66563 7.3654C5.63278 7.30359 5.62075 7.23286 5.63132 7.16368C5.6419 7.09451 5.67453 7.03058 5.72435 6.9814L7.02162 5.71741C7.07085 5.66763 7.13484 5.63504 7.20408 5.62447C7.27332 5.6139 7.34413 5.62592 7.40599 5.65874L9.00756 6.52274C9.40996 6.2984 9.83611 6.11953 10.2781 5.9894L10.812 4.22941C10.8324 4.16324 10.8735 4.10531 10.9292 4.06407C10.9849 4.02282 11.0523 4.0004 11.1216 4.00008H12.9261C12.995 3.99854 13.0626 4.01888 13.1192 4.05817C13.1758 4.09747 13.2184 4.15369 13.241 4.21875L13.7749 5.98407C14.2133 6.11489 14.6358 6.29376 15.0348 6.5174L16.663 5.64807C16.7249 5.61525 16.7957 5.60324 16.865 5.6138C16.9342 5.62437 16.9982 5.65696 17.0474 5.70674L18.3233 6.98673C18.3732 7.03592 18.4058 7.09984 18.4164 7.16902C18.4269 7.23819 18.4149 7.30893 18.3821 7.37073L17.5065 9.00806C17.72 9.40277 17.89 9.81942 18.0137 10.2507ZM10.3926 14.439C10.8754 14.7613 11.4431 14.9334 12.0238 14.9334C12.8026 14.9334 13.5494 14.6243 14.1 14.0742C14.6507 13.5241 14.96 12.778 14.96 12C14.96 11.4199 14.7878 10.8528 14.4652 10.3704C14.1426 9.88799 13.684 9.51202 13.1475 9.29001C12.611 9.06799 12.0206 9.0099 11.451 9.12309C10.8814 9.23627 10.3583 9.51564 9.94763 9.92587C9.537 10.3361 9.25735 10.8588 9.14406 11.4278C9.03076 11.9968 9.08891 12.5866 9.31114 13.1226C9.53338 13.6586 9.90972 14.1167 10.3926 14.439Z" fill="white"/>
</svg>
