<svg width="24" height="24" viewBox="0 0 24 24" fill="none" xmlns="http://www.w3.org/2000/svg">
<path fill-rule="evenodd" clip-rule="evenodd" d="M12 24C18.6274 24 24 18.6274 24 12C24 5.37258 18.6274 0 12 0C5.37258 0 0 5.37258 0 12C0 18.6274 5.37258 24 12 24ZM16.9192 4.13248L18.9907 9.90625C19.0067 9.95517 19.0021 10.0061 18.9769 10.051C18.9495 10.0958 18.9061 10.1284 18.8512 10.1447C18.8306 10.1508 18.81 10.1529 18.7872 10.1529H17.3879C17.2919 10.1529 17.2073 10.0958 17.1822 10.0143L16.7866 8.76087H14.7518L14.3517 10.0163C14.3242 10.0978 14.2419 10.1549 14.1459 10.1549H12.8564C12.7398 10.1549 12.6438 10.0693 12.6438 9.96536C12.6438 9.94498 12.6483 9.9246 12.6552 9.90625L14.7426 4.13248C14.7724 4.053 14.8524 4.00001 14.9461 4.00001H16.7157C16.7611 3.99968 16.8054 4.01238 16.8421 4.03624C16.8787 4.0601 16.9058 4.09384 16.9192 4.13248ZM15.7098 5.31658L14.9598 7.69905H16.5877L15.8538 5.31658H15.7098ZM15.2776 17.7446H18.2407C18.2686 17.7446 18.2961 17.7495 18.3218 17.759C18.3474 17.7686 18.3707 17.7826 18.3903 17.8002C18.4099 17.8178 18.4253 17.8387 18.4357 17.8617C18.4462 17.8847 18.4514 17.9093 18.4511 17.9341V18.8105C18.4511 18.9144 18.3551 19 18.2385 19H13.4051C13.2885 19 13.1925 18.9144 13.1925 18.8105V18.0686C13.1924 18.0292 13.206 17.9908 13.2314 17.9586L16.2745 14.1087V14.1005H13.4714C13.3548 14.1005 13.2588 14.0149 13.2588 13.911V13.0346C13.2588 12.9307 13.3548 12.8451 13.4714 12.8451H18.1356C18.2522 12.8451 18.3482 12.9307 18.3482 13.0346V13.7765C18.3482 13.8173 18.3345 13.8539 18.3093 13.8866L15.2776 17.7364V17.7446ZM7.56807 15.3723H9.3057C9.45888 15.3723 9.54348 15.5313 9.44974 15.6372L6.88903 18.5292C6.87192 18.5487 6.85006 18.5645 6.8251 18.5753C6.80015 18.5861 6.77275 18.5918 6.74499 18.5918C6.71723 18.5918 6.68983 18.5861 6.66488 18.5753C6.63992 18.5645 6.61806 18.5487 6.60095 18.5292L4.04024 15.6372C3.94421 15.5313 4.03109 15.3723 4.18428 15.3723H5.9219V4.57066C5.9219 4.48098 6.00421 4.40761 6.10481 4.40761H7.38517C7.48577 4.40761 7.56807 4.48098 7.56807 4.57066V15.3723Z" fill="white"/>
</svg>
